<?xml version="1.0" encoding="utf-8"?>
<!-- Generator: Adobe Illustrator 16.0.0, SVG Export Plug-In . SVG Version: 6.00 Build 0)  -->
<!DOCTYPE svg PUBLIC "-//W3C//DTD SVG 1.1//EN" "http://www.w3.org/Graphics/SVG/1.1/DTD/svg11.dtd">
<svg version="1.1" id="Layer_1" xmlns="http://www.w3.org/2000/svg" xmlns:xlink="http://www.w3.org/1999/xlink" x="0px" y="0px"
	 width="250px" height="120px" viewBox="0 0 250 120" enable-background="new 0 0 250 120" xml:space="preserve">
<path d="M165.592,12.668l-8.744-8.605h-28.699v51.771h10.744v-0.023h17.955l8.744-7.791V33.879l-6.42-5.954l6.42-5.116V12.668z
	 M152.846,43.647l-3.535,3.094h-10.418V33.042h10.418l3.535,3.257V43.647z M153.219,21.32l-3.908,2.652h-10.418V13.134h10.418
	l3.908,2.232V21.32z"/>
<path d="M84.794,22.809l6.418,5.116l-6.418,5.955v14.142l8.746,7.791h17.954v0.022h10.745V4.063H93.54l-8.746,8.605V22.809z
	 M97.54,36.299l3.535-3.256h10.419v13.698h-10.419l-3.535-3.094V36.299z M97.167,15.366l3.908-2.232h10.419v10.838h-10.419
	l-3.908-2.652V15.366z"/>
<path d="M21.216,81.126c1.188,0.396,2.092,0.974,2.717,1.728c0.622,0.752,0.934,1.657,0.934,2.715c0,0.902-0.142,1.688-0.426,2.355
	c-0.285,0.667-0.717,1.217-1.298,1.645c-0.58,0.431-1.264,0.744-2.048,0.941c-0.785,0.2-1.784,0.299-2.996,0.299h-7.838v-0.895
	c0.314-0.09,0.562-0.188,0.744-0.292c0.183-0.104,0.319-0.246,0.408-0.433c0.089-0.188,0.146-0.42,0.172-0.705
	c0.025-0.283,0.037-0.644,0.037-1.075V75.736c0-0.424-0.01-0.781-0.032-1.069c-0.02-0.289-0.075-0.522-0.166-0.703
	c-0.088-0.183-0.223-0.328-0.407-0.44c-0.183-0.111-0.434-0.215-0.757-0.305v-0.894h8.334c0.949,0,1.726,0.05,2.328,0.147
	c0.797,0.137,1.489,0.369,2.074,0.703c0.526,0.301,0.938,0.725,1.233,1.272c0.298,0.552,0.446,1.204,0.446,1.964
	c0,2.04-1.153,3.568-3.46,4.591L21.216,81.126 M17.259,80.421c0.848,0,1.514-0.13,1.997-0.394c0.483-0.26,0.85-0.633,1.1-1.115
	c0.251-0.482,0.376-1.148,0.376-1.996c0-0.75-0.136-1.344-0.408-1.782c-0.271-0.437-0.657-0.751-1.158-0.94
	c-0.501-0.188-1.124-0.282-1.87-0.282c-0.595,0-1.171,0.021-1.731,0.065v6.444H17.259L17.259,80.421z M15.566,89.182
	c0.5,0.028,1.077,0.043,1.731,0.043c0.806,0,1.469-0.106,1.99-0.317c0.521-0.214,0.927-0.582,1.215-1.11
	c0.288-0.527,0.433-1.253,0.433-2.174c0-0.648-0.076-1.207-0.229-1.672c-0.153-0.467-0.382-0.842-0.688-1.124
	c-0.304-0.284-0.669-0.491-1.094-0.622c-0.425-0.131-0.954-0.196-1.59-0.196h-1.769L15.566,89.182L15.566,89.182z"/>
<path d="M39.668,75.723c0-0.677-0.028-1.146-0.083-1.414c-0.056-0.267-0.163-0.479-0.324-0.645
	c-0.161-0.162-0.475-0.311-0.942-0.445v-0.894h5.599v0.894c-0.306,0.09-0.548,0.187-0.726,0.289
	c-0.178,0.105-0.314,0.25-0.408,0.436c-0.094,0.186-0.151,0.422-0.177,0.703c-0.025,0.285-0.039,0.646-0.039,1.076v8.465
	c0,1.119-0.085,2.057-0.255,2.81c-0.169,0.756-0.432,1.389-0.789,1.901c-0.355,0.517-0.799,0.932-1.329,1.246
	c-0.531,0.316-1.126,0.543-1.788,0.676c-0.662,0.138-1.404,0.205-2.227,0.205c-1.205,0-2.223-0.135-3.053-0.398
	c-0.832-0.268-1.509-0.668-2.03-1.206c-0.522-0.537-0.908-1.188-1.157-1.956c-0.251-0.77-0.376-1.756-0.376-2.965v-8.764
	c0-0.422-0.011-0.779-0.033-1.067c-0.02-0.288-0.076-0.521-0.165-0.704c-0.089-0.18-0.226-0.326-0.407-0.439
	c-0.182-0.111-0.435-0.213-0.757-0.303v-0.896h6.679v0.896c-0.348,0.098-0.604,0.203-0.769,0.317c-0.166,0.11-0.292,0.25-0.376,0.41
	c-0.084,0.164-0.145,0.377-0.178,0.638c-0.035,0.264-0.051,0.646-0.051,1.148v8.938c0,0.714,0.042,1.363,0.127,1.95
	c0.084,0.587,0.24,1.09,0.465,1.509c0.225,0.421,0.535,0.744,0.935,0.97c0.399,0.227,0.912,0.338,1.54,0.338
	c0.866,0,1.509-0.186,1.934-0.557c0.423-0.369,0.723-0.886,0.896-1.551c0.175-0.663,0.262-1.652,0.262-2.971v-8.641"/>
<path d="M50.906,90.809v-0.895c0.355-0.062,0.637-0.146,0.845-0.25s0.363-0.251,0.464-0.439c0.102-0.188,0.166-0.433,0.191-0.725
	c0.025-0.294,0.039-0.658,0.039-1.091v-13.5h-1.031c-0.508,0-0.899,0.062-1.17,0.188c-0.272,0.127-0.507,0.324-0.707,0.596
	c-0.199,0.271-0.37,0.635-0.515,1.091c-0.144,0.456-0.263,0.887-0.356,1.293h-1.744v-4.752h14.976v4.752h-1.743
	c-0.162-0.612-0.288-1.065-0.382-1.354c-0.093-0.289-0.197-0.535-0.311-0.738c-0.114-0.2-0.235-0.37-0.363-0.508
	c-0.127-0.135-0.263-0.244-0.408-0.324c-0.143-0.082-0.323-0.143-0.54-0.184c-0.217-0.041-0.498-0.061-0.847-0.061H56.39v13.5
	c0,0.479,0.012,0.842,0.038,1.091c0.025,0.247,0.072,0.448,0.14,0.603c0.067,0.152,0.15,0.277,0.247,0.371
	c0.098,0.096,0.233,0.183,0.408,0.258c0.173,0.078,0.41,0.139,0.707,0.185v0.896h-7.024"/>
<path d="M77.081,72.744v3.927h-1.73c-0.204-1.021-0.526-1.771-0.967-2.254c-0.441-0.481-1.018-0.724-1.73-0.724
	c-1.341,0-2.354,0.682-3.042,2.05c-0.686,1.368-1.03,3.396-1.03,6.087c0,2.5,0.314,4.395,0.941,5.682
	c0.628,1.284,1.548,1.928,2.763,1.928c0.618,0,1.123-0.108,1.513-0.33c0.39-0.221,0.702-0.553,0.936-0.994
	c0.234-0.442,0.434-1.065,0.604-1.869h1.742v4.104c-0.933,0.233-1.786,0.405-2.557,0.516c-0.772,0.107-1.574,0.162-2.404,0.162
	c-1.765,0-3.204-0.338-4.319-1.017c-1.117-0.677-1.938-1.698-2.469-3.065c-0.53-1.367-0.795-3.098-0.795-5.193
	c0-1.958,0.312-3.662,0.936-5.109c0.624-1.451,1.541-2.565,2.755-3.353c1.213-0.786,2.663-1.179,4.351-1.179
	c0.856,0,1.633,0.05,2.328,0.148C75.601,72.357,76.326,72.52,77.081,72.744"/>
<path d="M95.609,87.409c0,0.694,0.027,1.171,0.083,1.429c0.055,0.258,0.166,0.473,0.337,0.645c0.169,0.17,0.479,0.313,0.929,0.434
	v0.895h-6.643v-0.895c0.493-0.139,0.81-0.271,0.955-0.406c0.144-0.136,0.246-0.326,0.306-0.574s0.088-0.758,0.088-1.522V81.98
	h-5.751v5.431c0,0.315,0.01,0.608,0.026,0.88c0.018,0.271,0.051,0.492,0.101,0.663c0.052,0.172,0.126,0.315,0.223,0.435
	c0.098,0.116,0.23,0.219,0.401,0.303c0.169,0.089,0.377,0.162,0.623,0.227v0.895h-6.68v-0.895c0.314-0.091,0.561-0.188,0.744-0.291
	s0.319-0.248,0.407-0.436c0.089-0.185,0.147-0.418,0.173-0.702c0.024-0.285,0.038-0.646,0.038-1.076V75.736
	c0-0.424-0.011-0.781-0.031-1.069c-0.021-0.289-0.078-0.522-0.167-0.704c-0.088-0.18-0.225-0.327-0.408-0.439
	c-0.182-0.111-0.434-0.215-0.756-0.305v-0.894h6.68v0.894c-0.449,0.135-0.757,0.284-0.922,0.445
	c-0.166,0.164-0.282,0.378-0.35,0.645c-0.068,0.268-0.102,0.748-0.102,1.442v4.521h5.751v-4.521c0-0.687-0.027-1.162-0.082-1.429
	c-0.056-0.266-0.166-0.482-0.33-0.65c-0.167-0.167-0.479-0.318-0.937-0.453v-0.894h6.643v0.894
	c-0.375,0.107-0.646,0.225-0.815,0.346s-0.29,0.276-0.362,0.469c-0.072,0.188-0.12,0.4-0.141,0.636s-0.032,0.597-0.032,1.084
	L95.609,87.409"/>
<path d="M113.26,72.325v4.306h-1.743c-0.28-0.857-0.518-1.438-0.712-1.738c-0.196-0.304-0.429-0.543-0.701-0.719
	c-0.271-0.177-0.733-0.265-1.386-0.265h-2.774v6.499h1.679c0.373,0,0.666-0.057,0.879-0.169c0.211-0.113,0.388-0.3,0.527-0.562
	c0.14-0.262,0.274-0.668,0.401-1.218h1.438v5.497h-1.438c-0.119-0.522-0.25-0.924-0.396-1.198c-0.143-0.275-0.315-0.472-0.515-0.59
	c-0.2-0.117-0.498-0.174-0.897-0.174h-1.679v7.229h2.761c0.297,0,0.547-0.02,0.751-0.061s0.386-0.111,0.546-0.21
	c0.162-0.101,0.318-0.235,0.465-0.407c0.149-0.171,0.28-0.355,0.394-0.555c0.115-0.198,0.236-0.46,0.362-0.785
	c0.127-0.325,0.268-0.771,0.42-1.34h1.743l-0.242,4.941h-12.507v-0.896c0.315-0.09,0.562-0.188,0.745-0.291s0.317-0.249,0.407-0.435
	c0.089-0.187,0.146-0.42,0.171-0.705c0.026-0.282,0.038-0.643,0.038-1.074v-11.67c0-0.424-0.01-0.781-0.032-1.069
	c-0.021-0.289-0.077-0.522-0.166-0.703c-0.089-0.181-0.224-0.328-0.407-0.44c-0.182-0.111-0.434-0.215-0.758-0.305v-0.894H113.26"/>
<path d="M123.594,90.809h-6.68v-0.895c0.313-0.091,0.562-0.188,0.744-0.291c0.183-0.104,0.319-0.248,0.408-0.434
	c0.089-0.187,0.146-0.42,0.172-0.705c0.025-0.284,0.038-0.645,0.038-1.075V75.736c0-0.424-0.01-0.781-0.032-1.069
	c-0.021-0.288-0.076-0.522-0.165-0.704c-0.089-0.18-0.225-0.327-0.407-0.439c-0.184-0.111-0.436-0.215-0.758-0.305v-0.894h7.417
	c1,0,1.853,0.073,2.552,0.224c0.7,0.148,1.312,0.376,1.84,0.684c0.44,0.254,0.813,0.57,1.118,0.955
	c0.306,0.383,0.54,0.83,0.706,1.34c0.165,0.512,0.248,1.104,0.248,1.781c0,0.883-0.146,1.643-0.439,2.273
	c-0.291,0.633-0.686,1.157-1.183,1.577c-0.496,0.42-1.159,0.815-1.989,1.187v0.135c0.625,0.289,1.146,0.677,1.559,1.158
	c0.41,0.481,0.781,1.094,1.111,1.834l0.804,1.842c0.354,0.821,0.71,1.438,1.062,1.851c0.354,0.409,0.771,0.66,1.256,0.751v0.895
	h-4.898c-0.492-0.723-1.049-1.797-1.667-3.223l-0.992-2.314c-0.296-0.688-0.553-1.174-0.764-1.463s-0.43-0.486-0.655-0.598
	c-0.225-0.107-0.57-0.161-1.037-0.161h-0.737v4.359c0,0.677,0.029,1.149,0.089,1.421c0.059,0.271,0.173,0.486,0.343,0.65
	c0.17,0.162,0.484,0.307,0.941,0.434v0.895 M122.221,73.936v7.53h1.259c0.678,0,1.238-0.099,1.679-0.292
	c0.44-0.193,0.792-0.465,1.051-0.812c0.258-0.348,0.437-0.756,0.533-1.227c0.099-0.468,0.147-0.984,0.147-1.543
	c0-1.228-0.271-2.148-0.815-2.763c-0.542-0.613-1.349-0.92-2.417-0.92C122.929,73.909,122.449,73.918,122.221,73.936"/>
<path d="M149.021,90.809h-6.68v-0.895c0.312-0.091,0.562-0.188,0.742-0.291c0.186-0.104,0.318-0.248,0.409-0.434
	c0.089-0.187,0.146-0.42,0.17-0.705c0.024-0.284,0.039-0.645,0.039-1.075V75.736c0-0.424-0.013-0.781-0.031-1.069
	c-0.021-0.288-0.075-0.522-0.167-0.704c-0.088-0.18-0.227-0.327-0.404-0.439c-0.185-0.111-0.437-0.215-0.758-0.305v-0.894h7.417
	c1.001,0,1.853,0.073,2.552,0.224c0.698,0.148,1.312,0.376,1.838,0.684c0.44,0.254,0.814,0.57,1.121,0.955
	c0.305,0.383,0.539,0.83,0.705,1.34c0.166,0.512,0.25,1.104,0.25,1.781c0,0.883-0.146,1.643-0.44,2.273
	c-0.292,0.633-0.687,1.157-1.183,1.577s-1.16,0.815-1.992,1.187v0.135c0.629,0.289,1.146,0.677,1.56,1.158
	c0.411,0.481,0.782,1.094,1.112,1.834l0.803,1.842c0.355,0.821,0.71,1.438,1.062,1.851c0.352,0.409,0.77,0.66,1.252,0.751v0.895
	h-4.897c-0.491-0.723-1.047-1.797-1.666-3.223l-0.992-2.314c-0.298-0.688-0.554-1.174-0.764-1.463
	c-0.214-0.289-0.433-0.486-0.655-0.598c-0.225-0.107-0.57-0.161-1.037-0.161h-0.738v4.359c0,0.677,0.029,1.149,0.09,1.421
	s0.175,0.486,0.345,0.65c0.169,0.162,0.481,0.307,0.94,0.434v0.895 M147.648,73.936v7.53h1.26c0.678,0,1.238-0.099,1.68-0.292
	s0.79-0.465,1.051-0.812c0.258-0.348,0.438-0.756,0.532-1.227c0.099-0.468,0.146-0.984,0.146-1.543c0-1.228-0.271-2.148-0.812-2.763
	c-0.543-0.613-1.351-0.92-2.419-0.92C148.355,73.909,147.877,73.918,147.648,73.936"/>
<path d="M173.43,72.325v4.306h-1.744c-0.277-0.857-0.517-1.438-0.711-1.738c-0.195-0.304-0.43-0.543-0.699-0.719
	c-0.271-0.177-0.734-0.265-1.387-0.265h-2.772v6.499h1.679c0.373,0,0.665-0.057,0.878-0.169c0.212-0.113,0.39-0.3,0.528-0.562
	c0.14-0.262,0.271-0.668,0.398-1.218h1.438v5.497H169.6c-0.119-0.522-0.25-0.924-0.395-1.198c-0.145-0.275-0.316-0.472-0.516-0.59
	c-0.199-0.117-0.498-0.174-0.896-0.174h-1.68v7.229h2.762c0.296,0,0.546-0.02,0.75-0.061c0.203-0.041,0.387-0.111,0.547-0.21
	c0.162-0.101,0.316-0.235,0.465-0.407c0.148-0.171,0.28-0.355,0.396-0.555c0.113-0.198,0.232-0.46,0.361-0.785
	c0.127-0.325,0.268-0.771,0.42-1.34h1.742l-0.242,4.941h-12.506v-0.896c0.312-0.09,0.562-0.188,0.742-0.291
	c0.186-0.104,0.319-0.249,0.409-0.435c0.089-0.187,0.146-0.42,0.17-0.705c0.026-0.282,0.039-0.643,0.039-1.074v-11.67
	c0-0.424-0.01-0.781-0.032-1.069c-0.021-0.289-0.076-0.522-0.164-0.703c-0.09-0.181-0.226-0.328-0.408-0.44
	c-0.182-0.111-0.435-0.215-0.756-0.305v-0.894H173.43"/>
<path d="M185.939,85.079h-5.434l-0.421,1.286c-0.118,0.363-0.217,0.713-0.293,1.052c-0.076,0.338-0.112,0.696-0.112,1.075
	c0,0.885,0.439,1.359,1.321,1.422v0.895h-5.435v-0.895c0.313-0.036,0.592-0.153,0.826-0.354c0.237-0.197,0.455-0.47,0.649-0.812
	s0.401-0.837,0.623-1.479l5.308-15.043h3.396l4.197,15.164c0.188,0.678,0.346,1.159,0.472,1.443
	c0.128,0.284,0.293,0.516,0.497,0.689c0.201,0.178,0.486,0.304,0.854,0.387v0.895h-7.022V89.91c0.44-0.055,0.768-0.186,0.979-0.395
	c0.212-0.205,0.316-0.5,0.316-0.879c0-0.279-0.029-0.593-0.089-0.937c-0.061-0.343-0.156-0.775-0.293-1.3L185.939,85.079
	 M180.99,83.494h4.58l-2.035-7.622L180.99,83.494z"/>
<path d="M201.783,72.325v0.894c-0.307,0.09-0.547,0.188-0.727,0.29c-0.179,0.105-0.314,0.247-0.412,0.429
	c-0.1,0.181-0.162,0.412-0.191,0.695c-0.029,0.285-0.044,0.643-0.044,1.077v13.487h2.468c0.491,0,0.887-0.082,1.186-0.244
	c0.295-0.163,0.554-0.414,0.77-0.752c0.216-0.34,0.402-0.781,0.561-1.327c0.157-0.545,0.281-1.06,0.377-1.537h1.744l-0.281,5.472
	h-12.127v-0.895c0.314-0.09,0.562-0.189,0.746-0.299c0.183-0.106,0.315-0.254,0.405-0.439c0.091-0.185,0.146-0.421,0.173-0.701
	c0.024-0.285,0.036-0.646,0.036-1.08V75.736c0-0.424-0.01-0.781-0.03-1.069c-0.021-0.289-0.076-0.522-0.164-0.703
	c-0.09-0.181-0.227-0.328-0.408-0.44c-0.182-0.111-0.434-0.215-0.758-0.305v-0.894H201.783"/>
<path d="M211.177,90.809v-0.895c0.355-0.062,0.638-0.146,0.847-0.25c0.207-0.104,0.363-0.251,0.465-0.439
	c0.103-0.188,0.164-0.433,0.189-0.725c0.025-0.294,0.038-0.658,0.038-1.091v-13.5h-1.03c-0.509,0-0.896,0.062-1.17,0.188
	c-0.271,0.127-0.508,0.324-0.707,0.596c-0.199,0.271-0.371,0.635-0.516,1.091s-0.262,0.887-0.355,1.293h-1.742v-4.752h14.976v4.752
	h-1.741c-0.162-0.612-0.287-1.065-0.383-1.354c-0.094-0.289-0.195-0.535-0.312-0.738c-0.112-0.2-0.233-0.37-0.361-0.508
	c-0.128-0.135-0.266-0.244-0.407-0.324c-0.146-0.082-0.323-0.143-0.541-0.184c-0.216-0.041-0.498-0.061-0.846-0.061h-0.916v13.5
	c0,0.479,0.014,0.842,0.037,1.091c0.024,0.247,0.071,0.448,0.142,0.603c0.066,0.152,0.149,0.277,0.248,0.371
	c0.098,0.096,0.23,0.183,0.406,0.258c0.174,0.078,0.408,0.139,0.706,0.185v0.896h-7.025"/>
<path d="M233.93,83.698v3.711c0,0.479,0.014,0.842,0.038,1.088c0.025,0.25,0.071,0.451,0.14,0.604
	c0.067,0.151,0.15,0.276,0.248,0.373c0.099,0.094,0.233,0.18,0.406,0.256c0.174,0.078,0.41,0.139,0.707,0.184v0.895h-7.023v-0.895
	c0.349-0.062,0.625-0.145,0.834-0.244c0.207-0.1,0.361-0.244,0.465-0.434c0.104-0.19,0.168-0.433,0.197-0.726
	c0.029-0.294,0.045-0.659,0.045-1.104v-3.712l-3.447-7.743c-0.297-0.658-0.53-1.146-0.7-1.464c-0.194-0.369-0.362-0.637-0.503-0.799
	s-0.27-0.274-0.388-0.34c-0.119-0.062-0.284-0.105-0.496-0.135V72.32h6.78v0.895c-0.651,0.09-0.979,0.434-0.979,1.029
	c0,0.234,0.055,0.514,0.159,0.839s0.276,0.759,0.517,1.301l2.148,5.091l2.329-4.97c0.229-0.497,0.388-0.909,0.478-1.239
	c0.09-0.328,0.135-0.656,0.135-0.979c0-0.324-0.088-0.579-0.263-0.767c-0.174-0.185-0.418-0.285-0.731-0.305V72.32h5.104v0.895
	c-0.229,0.055-0.417,0.129-0.566,0.225c-0.146,0.096-0.311,0.242-0.487,0.444c-0.181,0.204-0.392,0.509-0.64,0.915
	c-0.244,0.406-0.526,0.934-0.853,1.585L233.93,83.698"/>
<rect x="9.648" y="96.548" width="231.09" height="1.401"/>
<rect x="9.648" y="65.182" width="231.09" height="1.401"/>
<path d="M26.03,110.717c0.5,0.215,0.878,0.498,1.132,0.852c0.254,0.354,0.381,0.772,0.381,1.258c0,0.708-0.225,1.275-0.675,1.71
	c-0.451,0.434-1.047,0.647-1.79,0.647c-0.606,0-1.114-0.153-1.524-0.465c-0.41-0.311-0.687-0.751-0.831-1.322l0.831-0.407
	c0.112,0.467,0.297,0.817,0.555,1.059c0.257,0.24,0.581,0.36,0.969,0.36c0.458,0,0.831-0.135,1.114-0.396
	c0.284-0.266,0.426-0.609,0.426-1.033c0-0.344-0.099-0.644-0.296-0.896c-0.198-0.254-0.497-0.469-0.896-0.646l-0.935-0.397
	c-0.512-0.214-0.893-0.489-1.144-0.826c-0.25-0.336-0.375-0.737-0.375-1.208c0-0.547,0.203-0.998,0.609-1.355
	c0.406-0.355,0.925-0.534,1.556-0.534c0.462,0,0.862,0.098,1.2,0.294c0.338,0.195,0.602,0.484,0.791,0.867l-0.757,0.482
	c-0.171-0.299-0.364-0.521-0.578-0.666c-0.214-0.145-0.456-0.218-0.726-0.218c-0.343,0-0.624,0.104-0.843,0.313
	c-0.219,0.211-0.329,0.479-0.329,0.806c0,0.272,0.084,0.51,0.253,0.71c0.167,0.197,0.429,0.376,0.782,0.529L26.03,110.717z"/>
<path d="M37.42,111.159c0,0.55-0.101,1.067-0.305,1.555c-0.204,0.486-0.5,0.92-0.889,1.298c-0.389,0.379-0.837,0.67-1.344,0.875
	c-0.506,0.205-1.031,0.309-1.574,0.309s-1.067-0.104-1.57-0.309c-0.502-0.205-0.949-0.496-1.338-0.875
	c-0.392-0.382-0.691-0.813-0.896-1.303c-0.206-0.486-0.308-1.004-0.308-1.55c0-0.552,0.102-1.07,0.308-1.56
	c0.205-0.488,0.504-0.925,0.896-1.308c0.386-0.374,0.831-0.664,1.336-0.866c0.504-0.201,1.029-0.305,1.572-0.305
	c0.546,0,1.073,0.104,1.58,0.305c0.507,0.202,0.953,0.492,1.338,0.866c0.389,0.379,0.686,0.812,0.889,1.301
	C37.319,110.084,37.42,110.604,37.42,111.159 M33.309,114.332c0.421,0,0.822-0.079,1.202-0.239c0.381-0.159,0.723-0.391,1.029-0.696
	c0.301-0.301,0.531-0.642,0.688-1.022c0.158-0.382,0.237-0.786,0.237-1.213c0-0.433-0.08-0.843-0.24-1.229
	c-0.159-0.39-0.388-0.731-0.686-1.029c-0.302-0.301-0.643-0.53-1.023-0.688c-0.38-0.157-0.783-0.235-1.207-0.235
	c-0.428,0-0.833,0.078-1.215,0.235c-0.382,0.158-0.72,0.388-1.015,0.688c-0.302,0.305-0.531,0.648-0.688,1.035
	c-0.158,0.385-0.237,0.793-0.237,1.226c0,0.427,0.079,0.829,0.234,1.208c0.156,0.378,0.387,0.722,0.691,1.029
	c0.309,0.309,0.651,0.541,1.028,0.699C32.483,114.254,32.884,114.332,33.309,114.332"/>
<path d="M39.667,107.296h0.925v4.787c0,0.778,0.165,1.349,0.497,1.714c0.331,0.364,0.85,0.546,1.558,0.546
	c0.707,0,1.227-0.182,1.558-0.546c0.331-0.365,0.497-0.936,0.497-1.714v-4.787h0.93v4.787c0,1.04-0.248,1.819-0.744,2.336
	c-0.496,0.519-1.243,0.774-2.241,0.774c-0.995,0-1.741-0.258-2.236-0.774c-0.496-0.517-0.744-1.296-0.744-2.336V107.296z"/>
<polygon points="49.581,114.988 49.581,108.169 47.405,108.169 47.405,107.296 52.67,107.296 52.67,108.169 50.506,108.169 
	50.506,114.988 "/>
<polygon points="54.476,114.988 54.476,107.296 55.391,107.296 55.391,110.255 59.479,110.255 59.479,107.296 60.409,107.296 
	60.409,114.988 59.479,114.988 59.479,111.127 55.391,111.127 55.391,114.988 "/>
<polygon points="63.034,114.988 63.034,107.296 67.09,107.296 67.09,108.131 63.948,108.131 63.948,110.339 67.09,110.339 
	67.09,111.189 63.948,111.189 63.948,114.139 67.09,114.139 67.09,114.988 "/>
<path d="M69.427,114.988v-7.692h1.808c0.515,0,0.893,0.028,1.132,0.087c0.24,0.057,0.452,0.156,0.633,0.297
	c0.228,0.18,0.405,0.418,0.531,0.717c0.126,0.302,0.189,0.634,0.189,0.996c0,0.631-0.177,1.109-0.528,1.438
	c-0.353,0.328-0.869,0.491-1.548,0.491h-0.163l2.938,3.668h-1.161l-2.806-3.668H70.32v3.668h-0.893V114.988z M70.32,108.068v2.574
	h0.699c0.714,0,1.192-0.093,1.434-0.275c0.242-0.184,0.363-0.506,0.363-0.965c0-0.493-0.125-0.84-0.373-1.037
	c-0.249-0.198-0.724-0.297-1.424-0.297H70.32z"/>
<polygon points="75.972,114.988 75.972,106.991 81.6,113.141 81.6,107.296 82.472,107.296 82.472,115.288 76.844,109.209 
	76.844,114.988 "/>
<path d="M95.3,109.135c-0.368-0.398-0.76-0.693-1.177-0.885s-0.877-0.287-1.382-0.287c-0.406,0-0.803,0.082-1.19,0.247
	c-0.387,0.165-0.722,0.396-1.005,0.688c-0.295,0.305-0.516,0.646-0.663,1.021c-0.146,0.377-0.22,0.793-0.22,1.248
	c0,0.356,0.043,0.688,0.131,0.988c0.087,0.302,0.219,0.577,0.394,0.829c0.309,0.438,0.688,0.775,1.138,1.013
	c0.45,0.235,0.937,0.354,1.458,0.354c0.49,0,0.945-0.103,1.366-0.306c0.42-0.203,0.804-0.506,1.151-0.907v1.213
	c-0.382,0.275-0.793,0.484-1.232,0.629c-0.439,0.142-0.895,0.213-1.364,0.213c-0.406,0-0.802-0.062-1.188-0.183
	c-0.385-0.12-0.747-0.298-1.082-0.526c-0.561-0.392-0.989-0.868-1.286-1.438c-0.296-0.566-0.444-1.189-0.444-1.87
	c0-0.592,0.099-1.131,0.297-1.614c0.198-0.484,0.5-0.928,0.906-1.321c0.393-0.38,0.827-0.661,1.304-0.849
	c0.476-0.188,0.996-0.281,1.561-0.281c0.445,0,0.876,0.064,1.293,0.201c0.417,0.136,0.828,0.345,1.235,0.629L95.3,109.135
	L95.3,109.135z"/>
<path d="M100.079,106.991l3.5,7.997h-0.993l-0.999-2.359h-3.006l-0.998,2.359H96.59L100.079,106.991z M100.079,109.014l-1.225,2.834
	h2.449L100.079,109.014z"/>
<polygon points="105.158,114.988 105.158,107.296 106.073,107.296 106.073,114.117 108.979,114.117 108.979,114.988 "/>
<rect x="110.862" y="107.296" width="0.915" height="7.692"/>
<polygon points="114.423,114.988 114.423,107.296 118.479,107.296 118.479,108.131 115.337,108.131 115.337,110.339 
	118.479,110.339 118.479,111.189 115.337,111.189 115.337,114.988 "/>
<path d="M128.535,111.159c0,0.55-0.102,1.067-0.305,1.555c-0.205,0.486-0.5,0.92-0.891,1.298c-0.39,0.379-0.837,0.67-1.344,0.875
	c-0.506,0.205-1.031,0.309-1.574,0.309s-1.067-0.104-1.57-0.309s-0.949-0.496-1.338-0.875c-0.393-0.382-0.691-0.813-0.896-1.303
	c-0.206-0.486-0.308-1.004-0.308-1.55c0-0.552,0.102-1.07,0.308-1.56c0.205-0.488,0.504-0.925,0.896-1.308
	c0.385-0.374,0.831-0.664,1.336-0.866c0.504-0.201,1.029-0.305,1.572-0.305c0.546,0,1.073,0.104,1.58,0.305
	c0.507,0.202,0.953,0.492,1.339,0.866c0.39,0.379,0.687,0.812,0.89,1.301C128.434,110.084,128.535,110.604,128.535,111.159
	 M124.423,114.332c0.42,0,0.821-0.079,1.201-0.239c0.381-0.159,0.724-0.391,1.028-0.696c0.303-0.301,0.531-0.642,0.688-1.022
	c0.158-0.382,0.237-0.786,0.237-1.213c0-0.433-0.08-0.843-0.239-1.229c-0.158-0.389-0.389-0.731-0.688-1.029
	c-0.303-0.301-0.645-0.53-1.022-0.688c-0.38-0.157-0.783-0.235-1.207-0.235c-0.428,0-0.833,0.078-1.215,0.235
	c-0.383,0.158-0.721,0.388-1.016,0.688c-0.301,0.305-0.531,0.648-0.689,1.035c-0.157,0.385-0.236,0.793-0.236,1.226
	c0,0.427,0.078,0.829,0.233,1.208c0.157,0.378,0.388,0.722,0.692,1.029c0.309,0.309,0.652,0.541,1.029,0.699
	C123.599,114.254,123.999,114.332,124.423,114.332"/>
<path d="M130.812,114.988v-7.692h1.809c0.516,0,0.893,0.028,1.133,0.087c0.24,0.057,0.45,0.156,0.633,0.297
	c0.229,0.18,0.404,0.418,0.531,0.717c0.126,0.302,0.188,0.634,0.188,0.996c0,0.631-0.176,1.109-0.525,1.438
	c-0.354,0.328-0.868,0.491-1.551,0.491h-0.16l2.938,3.668h-1.162l-2.807-3.668h-0.131v3.668h-0.895V114.988z M131.707,108.068v2.574
	h0.697c0.716,0,1.193-0.093,1.436-0.275c0.243-0.184,0.363-0.506,0.363-0.965c0-0.493-0.125-0.84-0.373-1.037
	c-0.249-0.198-0.725-0.297-1.426-0.297H131.707z"/>
<polygon points="137.357,114.988 137.357,106.991 142.986,113.141 142.986,107.296 143.859,107.296 143.859,115.288 138.23,109.209 
	138.23,114.988 "/>
<rect x="146.494" y="107.296" width="0.915" height="7.692"/>
<path d="M152.486,106.991l3.5,7.997h-0.992l-0.998-2.359h-3.006l-0.999,2.359h-0.993L152.486,106.991z M152.486,109.014
	l-1.223,2.834h2.446L152.486,109.014z"/>
<path d="M161.525,114.988v-7.692h1.809c0.516,0,0.893,0.028,1.133,0.087c0.24,0.057,0.45,0.156,0.635,0.297
	c0.228,0.18,0.403,0.418,0.529,0.717c0.126,0.302,0.189,0.634,0.189,0.996c0,0.631-0.178,1.109-0.528,1.438
	c-0.353,0.328-0.868,0.491-1.548,0.491h-0.163l2.938,3.668h-1.162l-2.808-3.668h-0.131v3.668h-0.896v-0.002H161.525z
	 M162.42,108.068v2.574h0.698c0.715,0,1.192-0.093,1.435-0.275c0.243-0.184,0.363-0.506,0.363-0.965c0-0.493-0.125-0.84-0.373-1.037
	c-0.249-0.198-0.725-0.297-1.425-0.297H162.42z"/>
<polygon points="168.072,114.988 168.072,107.296 172.129,107.296 172.129,108.131 168.986,108.131 168.986,110.339 
	172.129,110.339 172.129,111.189 168.986,111.189 168.986,114.139 172.129,114.139 172.129,114.988 "/>
<path d="M176.896,106.991l3.5,7.997h-0.992l-0.998-2.359h-3.008l-0.998,2.359h-0.992L176.896,106.991z M176.896,109.014
	l-1.226,2.834h2.449L176.896,109.014z"/>
<polygon points="181.977,114.988 181.977,107.296 182.891,107.296 182.891,114.117 185.797,114.117 185.797,114.988 "/>
<polygon points="191.63,114.988 191.63,107.296 195.688,107.296 195.688,108.131 192.544,108.131 192.544,110.339 195.688,110.339 
	195.688,111.189 192.544,111.189 192.544,114.139 195.688,114.139 195.688,114.988 "/>
<path d="M200.823,110.717c0.501,0.215,0.879,0.498,1.133,0.852c0.254,0.354,0.381,0.772,0.381,1.258c0,0.708-0.226,1.275-0.675,1.71
	c-0.451,0.434-1.047,0.647-1.789,0.647c-0.605,0-1.114-0.153-1.523-0.465c-0.41-0.311-0.688-0.751-0.83-1.322l0.83-0.407
	c0.111,0.467,0.297,0.817,0.555,1.059c0.258,0.24,0.58,0.36,0.971,0.36c0.459,0,0.83-0.135,1.111-0.396
	c0.285-0.266,0.428-0.609,0.428-1.033c0-0.344-0.1-0.644-0.297-0.896c-0.198-0.254-0.496-0.469-0.896-0.646l-0.937-0.397
	c-0.513-0.214-0.894-0.489-1.144-0.826c-0.25-0.336-0.377-0.737-0.377-1.208c0-0.547,0.203-0.998,0.609-1.355
	c0.404-0.355,0.925-0.534,1.557-0.534c0.463,0,0.861,0.098,1.199,0.294c0.339,0.195,0.604,0.484,0.791,0.867l-0.757,0.482
	c-0.171-0.299-0.364-0.521-0.578-0.666c-0.214-0.145-0.455-0.218-0.726-0.218c-0.344,0-0.625,0.104-0.844,0.313
	c-0.22,0.211-0.328,0.479-0.328,0.806c0,0.272,0.084,0.51,0.252,0.71c0.168,0.197,0.43,0.376,0.783,0.529L200.823,110.717z"/>
<polygon points="205.688,114.988 205.688,108.169 203.512,108.169 203.512,107.296 208.775,107.296 208.775,108.169 
	206.611,108.169 206.611,114.988 "/>
<path d="M212.232,106.991l3.5,7.997h-0.994l-0.998-2.359h-3.006l-0.998,2.359h-0.993L212.232,106.991z M212.232,109.014
	l-1.227,2.834h2.449L212.232,109.014z"/>
<polygon points="218.068,114.988 218.068,108.169 215.893,108.169 215.893,107.296 221.157,107.296 221.157,108.169 
	218.993,108.169 218.993,114.988 "/>
<polygon points="222.964,114.988 222.964,107.296 227.021,107.296 227.021,108.131 223.878,108.131 223.878,110.339 
	227.021,110.339 227.021,111.189 223.878,111.189 223.878,114.139 227.021,114.139 227.021,114.988 "/>
</svg>
